<!--?xml version="1.0" encoding="utf-8"?-->
<!-- Svg Vector Icons : http://www.onlinewebfonts.com/icon -->

<svg version="1.1" xmlns="http://www.w3.org/2000/svg" xmlns:xlink="http://www.w3.org/1999/xlink" x="0px" y="0px" viewBox="0 0 256 256" enable-background="new 0 0 256 256" xml:space="preserve">
<metadata> Svg Vector Icons : http://www.onlinewebfonts.com/icon </metadata>
<g><g><path fill="#fffdfd" data-title="Layer 0" xs="0" d="M128,10C62.8,10,10,62.8,10,128c0,65.2,52.8,118,118,118c65.2,0,118-52.8,118-118C246,62.8,193.2,10,128,10z M128,226c-54.1,0-98-43.9-98-98c0-54.1,43.9-98,98-98c54.1,0,98,43.9,98,98C226,182.1,182.1,226,128,226z"/><path fill="#fffdfd" data-title="Layer 1" xs="1" d="M182.7,57.6H73.3c-5.2,0-9.5,4.3-9.5,9.5v1c0,5.2,4.3,9.5,9.5,9.5h109.4c5.2,0,9.5-4.3,9.5-9.5v-1C192.2,61.9,188,57.6,182.7,57.6z"/><path fill="#fffdfd" data-title="Layer 2" xs="2" d="M128.5,89.5h-1c-5.2,0-9.5,4.3-9.5,9.5v109.4c0,5.2,4.3,9.5,9.5,9.5h1c5.2,0,9.5-4.3,9.5-9.5V99C138,93.7,133.7,89.5,128.5,89.5z"/><path fill="#fffdfd" data-title="Layer 3" xs="3" d="M136.9,91.8l-0.5-0.8c-2.6-4.6-8.5-6.1-13-3.5l-67.6,39c-4.6,2.6-6.1,8.5-3.5,13l0.5,0.8c2.6,4.6,8.5,6.1,13,3.5l67.6-39C138,102.2,139.6,96.3,136.9,91.8z"/><path fill="#fffdfd" data-title="Layer 4" xs="4" d="M201,126.5l-67.6-39c-4.6-2.6-10.4-1-13,3.5l-0.5,0.8c-2.6,4.6-1,10.4,3.5,13l67.6,39c4.6,2.6,10.4,1,13-3.5l0.5-0.8C207.2,134.9,205.6,129.1,201,126.5z"/></g></g>
</svg>